<?xml version="1.0" ?><svg viewBox="0 0 512 512" xmlns="http://www.w3.org/2000/svg"><defs><style>.cls-1{fill:#f0a5a5;}.cls-2{fill:#cc8d8d;}.cls-3{fill:#d27676;}.cls-4{fill:#f9b7b7;}.cls-5{fill:#ea8383;}.cls-6{fill:#dfdfdf;}.cls-7{fill:#f9dbdb;}.cls-8{fill:#0071af;}.cls-9{fill:#ededed;}.cls-10{fill:#d4bbbb;}.cls-11{fill:#c77070;}.cls-12{fill:#cacaca;}.cls-13{fill:#00b378;}.cls-14{fill:#00a16c;}.cls-15{fill:#096;}.cls-16{fill:#d49c9c;}</style></defs><title/><g data-name="/ FILLED_OUTLINE" id="_FILLED_OUTLINE"><rect class="cls-1" height="16" width="16" x="344" y="16"/><rect class="cls-1" height="152" width="120" x="88" y="256"/><path class="cls-2" d="M103.70336,408H208V256A162.90838,162.90838,0,0,1,103.70336,408Z"/><rect class="cls-3" height="32" width="16" x="408" y="336"/><rect class="cls-3" height="33.81203" transform="translate(-129.17147 240.63488) rotate(-29.9995)" width="16.00003" x="376.45286" y="344.45287"/><rect class="cls-3" height="31.64831" transform="translate(-152.26698 504.08936) rotate(-59.99987)" width="15.99919" x="352.42228" y="368.08795"/><rect class="cls-3" height="16" width="32" x="336" y="408"/><rect class="cls-3" height="15.99919" transform="translate(-175.6983 240.32344) rotate(-30.00168)" width="32.00007" x="344.57419" y="440.00041"/><rect class="cls-3" height="16.00003" transform="translate(-215.96491 568.26742) rotate(-60.00007)" width="32.60341" x="367.84917" y="463.16453"/><rect class="cls-3" height="32" width="16" x="408" y="464"/><rect class="cls-3" height="32.00007" transform="translate(-175.69205 287.15832) rotate(-29.99993)" width="16.00003" x="439.99998" y="455.42575"/><rect class="cls-3" height="29.10109" transform="translate(-152.26806 633.71035) rotate(-59.99946)" width="15.99919" x="464.68156" y="434.17406"/><rect class="cls-3" height="16" width="32" x="464" y="408"/><rect class="cls-3" height="15.99919" transform="translate(-128.84376 287.17673) rotate(-30.00168)" width="32.00007" x="455.42575" y="376.00041"/><rect class="cls-3" height="16.00003" transform="translate(-88.26618 568.26714) rotate(-60.00007)" width="32.00007" x="431.99997" y="352.5742"/><path class="cls-4" d="M72.57788,71.42212l-1.15576,1.15576A107.28182,107.28182,0,0,0,40,148.43759v.0001a107.28184,107.28184,0,0,0,40.2634,83.773l100.99582,80.79665A68.41844,68.41844,0,0,0,223.99991,328h21.27937a77.07877,77.07877,0,0,0,65.36266-36.2271l0-.00007a77.07878,77.07878,0,0,0,9.41472-59.546l-42.502-170.008A29.33309,29.33309,0,0,0,249.09741,40H148.43759A107.28182,107.28182,0,0,0,72.57788,71.42212Z"/><rect class="cls-5" height="16" width="32" x="224" y="136"/><rect class="cls-6" height="16.00081" transform="translate(-37.72884 64.02012) rotate(-9.46002)" width="48.6621" x="343.66895" y="251.9996"/><rect class="cls-6" height="40" transform="translate(-135.2 266.4) rotate(-36.8699)" width="15.99961" x="324.0002" y="316"/><circle class="cls-5" cx="416" cy="416" r="56"/><rect class="cls-1" height="16" width="16" x="392" y="384"/><rect class="cls-1" height="16" width="16" x="424" y="400"/><rect class="cls-1" height="16" width="16" x="384" y="416"/><rect class="cls-1" height="16" width="16" x="416" y="432"/><circle class="cls-7" cx="464" cy="136" r="24"/><rect class="cls-6" height="46.64762" transform="translate(-87.38428 461.66273) rotate(-59.03624)" width="16.00095" x="355.99952" y="284.67619"/><rect class="cls-1" height="16" width="16" x="240" y="352"/><rect class="cls-1" height="16" width="16" x="288" y="384"/><rect class="cls-1" height="16" width="16" x="312" y="464"/><rect class="cls-1" height="16" width="16" x="344" y="192"/><rect class="cls-1" height="16" width="16" x="376" y="64"/><rect class="cls-1" height="16" width="16" x="432" y="32"/><polygon class="cls-8" points="480 248 480 284.686 403.313 208 435.313 176 325.657 66.343 314.343 77.657 412.687 176 380.687 208 468.686 296 432 296 432 312 496 312 496 248 480 248"/><rect class="cls-1" height="16" width="16" x="480" y="64"/><path class="cls-9" d="M177.53052,202.08691A79.99959,79.99959,0,0,0,160,252.0625V296l21.25922,17.00732A68.41924,68.41924,0,0,0,223.99994,328H245.2793A77.079,77.079,0,0,0,310.642,291.773h0a77.079,77.079,0,0,0,9.41467-59.54614L308,184H192Z"/><polygon class="cls-6" points="310 192 306 176 184.792 176 105.569 160.155 102.431 175.845 183.208 192 310 192"/><path class="cls-3" d="M144,24A120,120,0,0,0,24,144v12.06982A240.00085,240.00085,0,0,0,59.602,281.85327L88,328l34.13892-61.44995a16,16,0,0,0-2.67286-19.084l-3.868-3.86792A39.68276,39.68276,0,0,1,104,215.4458V214.824A38.824,38.824,0,0,1,142.82434,176H144V152a64,64,0,0,1,63.99994-64H233a63,63,0,0,0,63-63V24Z"/><path class="cls-10" d="M454.14038,157.87988a23.99755,23.99755,0,0,0,31.7395-31.7395A48.10444,48.10444,0,0,1,454.14038,157.87988Z"/><path class="cls-11" d="M392.99988,467.05566a55.99445,55.99445,0,0,0,74.05578-74.0559A112.252,112.252,0,0,1,392.99988,467.05566Z"/><path class="cls-12" d="M310.642,291.773a77.079,77.079,0,0,0,9.41467-59.54614l-2.08984-8.35962A160.28277,160.28277,0,0,1,202.02307,324.36255,68.39582,68.39582,0,0,0,223.99994,328H245.2793A77.079,77.079,0,0,0,310.642,291.773Z"/><path class="cls-13" d="M229.97766,407.42212,114.507,374.43066a69.7829,69.7829,0,0,0-78.34686,30.113A80.00043,80.00043,0,0,0,24,446.9436V496H288V484.34424A80.00032,80.00032,0,0,0,229.97766,407.42212Z"/><rect class="cls-14" height="40" width="16" x="152" y="456"/><path class="cls-15" d="M168.00012,496H288V484.34424a79.88282,79.88282,0,0,0-16.14648-48.19409A119.9465,119.9465,0,0,1,168.00012,496Z"/><path class="cls-16" d="M306,176l-12.56042-50.2417A111.89059,111.89059,0,0,1,200.00012,176Z"/><path class="cls-2" d="M432,448v-2.217q-1.34326,1.129-2.72119,2.217Z"/><path d="M327.81787,230.28613,287.7771,70.12329A70.67384,70.67384,0,0,0,304,25V16H144A128.14509,128.14509,0,0,0,16,144v12.07031A247.86031,247.86031,0,0,0,52.78857,286.0459L80,330.26416v35.09522a78.01243,78.01243,0,0,0-50.624,34.94433A87.91161,87.91161,0,0,0,16,446.94336V496H32V446.94336a71.91753,71.91753,0,0,1,10.94434-38.15918,62.06392,62.06392,0,0,1,69.36474-26.66113l115.47071,32.99121A72.30485,72.30485,0,0,1,280,484.34375V496h16V484.34375a88.37368,88.37368,0,0,0-63.82471-84.61426L216,395.10791V335.55859A75.71012,75.71012,0,0,0,224,336h21.2793a84.594,84.594,0,0,0,72.147-39.9873A85.51036,85.51036,0,0,0,327.81787,230.28613ZM297.75366,176H184.792L152,169.44141V152a56.06322,56.06322,0,0,1,56-56h25a70.59259,70.59259,0,0,0,41.40869-13.38013ZM125.12305,241.80957l-3.86817-3.86914A31.57085,31.57085,0,0,1,112,215.44629v-.62207A30.85938,30.85938,0,0,1,142.82422,184h.3833l33.23053,6.646-5.15485,6.44384A88.31464,88.31464,0,0,0,152,252.0625V279.355l-20.26239-16.21A24.11017,24.11017,0,0,0,125.12305,241.80957ZM87.647,312.16211l-21.23144-34.501A231.87481,231.87481,0,0,1,32,156.07031V144A112.12706,112.12706,0,0,1,144,32H287.55664A55.083,55.083,0,0,1,233,80H208a72.08124,72.08124,0,0,0-72,72v16.49609a46.89947,46.89947,0,0,0-40,46.32813v.62207a47.46683,47.46683,0,0,0,13.94092,33.80762l3.86816,3.86914a8.03371,8.03371,0,0,1,1.33643,9.542ZM200,390.53662l-83.29541-23.79834A76.924,76.924,0,0,0,96,363.79492V330.073l28.85651-51.94263,51.40521,41.12451A76.49416,76.49416,0,0,0,200,332.09912ZM303.85791,287.53223A68.6848,68.6848,0,0,1,245.2793,320H224a60.63854,60.63854,0,0,1-37.74316-13.23926L168,292.15527V252.0625A72.2556,72.2556,0,0,1,183.77734,207.085L195.84546,192h105.9082l10.54175,42.167A69.42622,69.42622,0,0,1,303.85791,287.53223Z"/><rect height="16" width="32" x="224" y="136"/><rect height="16.00081" transform="translate(-37.7367 64.03641) rotate(-9.46232)" width="48.6621" x="343.66895" y="251.9996"/><rect height="40" transform="translate(-135.2 266.4) rotate(-36.8699)" width="15.99961" x="324.0002" y="316"/><path d="M474.98926,391.17969l14.293-8.252-8-13.85546-14.32105,8.26831a64.538,64.538,0,0,0-12.30127-12.30127l8.26831-14.32154-13.85644-8-8.25171,14.293A63.47436,63.47436,0,0,0,424,352.51782V336H408v16.51782a63.47436,63.47436,0,0,0-16.82007,4.49292l-8.25171-14.293-13.85644,8,8.26831,14.32154a64.53769,64.53769,0,0,0-12.30115,12.30127l-14.32117-8.26831-8,13.85546,14.293,8.252A63.484,63.484,0,0,0,352.51782,408H336v16h16.51782a63.484,63.484,0,0,0,4.49292,16.82031l-14.293,8.252,8,13.85546,14.32117-8.26831a64.53769,64.53769,0,0,0,12.30115,12.30127l-8.26831,14.32154,13.85644,8,8.25171-14.293A63.47436,63.47436,0,0,0,408,479.48218V496h16V479.48218a63.47436,63.47436,0,0,0,16.82007-4.49292l8.25171,14.293,13.85644-8-8.26831-14.32154a64.538,64.538,0,0,0,12.30127-12.30127l14.32105,8.26831,8-13.85546-14.293-8.252A63.484,63.484,0,0,0,479.48218,424H496V408H479.48218A63.484,63.484,0,0,0,474.98926,391.17969ZM416,464a48,48,0,1,1,48-48A48.05405,48.05405,0,0,1,416,464Z"/><rect height="16" width="16" x="392" y="384"/><rect height="16" width="16" x="424" y="400"/><rect height="16" width="16" x="384" y="416"/><rect height="16" width="16" x="416" y="432"/><path d="M464,104a32,32,0,1,0,32,32A32.03635,32.03635,0,0,0,464,104Zm0,48a16,16,0,1,1,16-16A16.01833,16.01833,0,0,1,464,152Z"/><rect height="40" width="16" x="152" y="456"/><polygon points="480 284.686 403.313 208 435.313 176 325.657 66.343 314.343 77.657 412.687 176 380.687 208 468.686 296 432 296 432 312 496 312 496 248 480 248 480 284.686"/><rect height="46.64762" transform="translate(-87.38428 461.66273) rotate(-59.03624)" width="16.00095" x="355.99952" y="284.67619"/><rect height="16" width="16" x="240" y="352"/><rect height="16" width="16" x="288" y="384"/><rect height="16" width="16" x="312" y="464"/><rect height="16" width="16" x="344" y="192"/><rect height="16" width="16" x="376" y="64"/><rect height="16" width="16" x="432" y="32"/><rect height="16" width="16" x="344" y="16"/><rect height="16" width="16" x="480" y="64"/></g></svg>