<?xml version="1.0" ?><svg id="Layer_1" style="enable-background:new 0 0 512 512;" version="1.1" viewBox="0 0 512 512" xml:space="preserve" xmlns="http://www.w3.org/2000/svg" xmlns:xlink="http://www.w3.org/1999/xlink"><style type="text/css">
	.st0{fill:none;stroke:#000000;stroke-width:2;stroke-linecap:round;stroke-linejoin:round;stroke-miterlimit:10;}
	.st1{stroke:#000000;stroke-width:2;stroke-linecap:round;stroke-linejoin:round;stroke-miterlimit:10;}
	.st2{fill:#FFFFFF;}
</style><g><g><path d="M503.27,492.91H8.73c-4.27,0-7.73-3.46-7.73-7.73s3.46-7.73,7.73-7.73h494.55c4.27,0,7.73,3.46,7.73,7.73    S507.54,492.91,503.27,492.91z"/></g><g><path d="M453.03,492.91c-4.27,0-7.73-3.46-7.73-7.73V133.5c0-4.27,3.46-7.73,7.73-7.73s7.73,3.46,7.73,7.73v351.68    C460.76,489.46,457.3,492.91,453.03,492.91z"/></g><g><path d="M355.69,492.91c-4.27,0-7.73-3.46-7.73-7.73V168.04c0-4.27,3.46-7.73,7.73-7.73s7.73,3.46,7.73,7.73v317.14    C363.42,489.46,359.96,492.91,355.69,492.91z"/></g><g><path d="M258.35,492.91c-4.27,0-7.73-3.46-7.73-7.73V226.13c0-4.27,3.46-7.73,7.73-7.73c4.27,0,7.73,3.46,7.73,7.73v259.05    C266.08,489.46,262.63,492.91,258.35,492.91z"/></g><g><path d="M161.02,492.91c-4.27,0-7.73-3.46-7.73-7.73V303.07c0-4.27,3.46-7.73,7.73-7.73c4.27,0,7.73,3.46,7.73,7.73v182.12    C168.74,489.46,165.28,492.91,161.02,492.91z"/></g><g><path d="M63.67,492.91c-4.27,0-7.73-3.46-7.73-7.73v-98.92c0-4.27,3.46-7.73,7.73-7.73s7.73,3.46,7.73,7.73v98.92    C71.4,489.46,67.94,492.91,63.67,492.91z"/></g><g><path d="M51.12,334.34c-2.29,0-4.57-1.02-6.09-2.97c-2.63-3.37-2.03-8.23,1.33-10.85L414.87,32.48c3.39-2.63,8.23-2.03,10.85,1.33    c2.63,3.37,2.03,8.23-1.33,10.85L55.88,332.7C54.46,333.8,52.79,334.34,51.12,334.34z"/></g><g><path d="M407.84,144.6c-0.3,0-0.62-0.02-0.93-0.05c-4.24-0.51-7.26-4.36-6.75-8.6l10.87-90.58L320.2,34.49    c-4.23-0.51-7.26-4.35-6.75-8.6c0.51-4.23,4.24-7.27,8.6-6.75l98.51,11.8c2.04,0.25,3.89,1.29,5.15,2.9    c1.27,1.61,1.84,3.66,1.6,5.7l-11.79,98.25C415.04,141.72,411.7,144.6,407.84,144.6z"/></g></g></svg>